<?xml version="1.0" standalone="no"?><!DOCTYPE svg PUBLIC "-//W3C//DTD SVG 1.1//EN" "http://www.w3.org/Graphics/SVG/1.1/DTD/svg11.dtd"><svg t="1702950337729" class="icon" viewBox="0 0 1024 1024" version="1.1" xmlns="http://www.w3.org/2000/svg" p-id="7804" xmlns:xlink="http://www.w3.org/1999/xlink" width="200" height="200"><path d="M581.123413 666.678613c-1.911467 3.785387-5.870933 5.679787-11.881813 5.679787l-7.9872 0c-7.23968 0-10.857813-3.546453-10.857813-10.653013l0-51.933867 21.7088-0.713387 15.366827 15.98464 21.108053-19.872427c-19.26144-18.845013-39.40352-37.348693-60.433067-55.524693l-20.077227 15.57504 21.920427 21.510827c-32.57344 1.092267-58.453333 1.778347-77.643093 2.054827 14.820693-13.042347 28.306773-26.228053 40.461653-39.540053l98.23232 0 0-27.040427-80.30208 0-9.629013-23.56224-29.91104 6.560427 7.376213 16.994987-83.380907 0 0 27.047253 60.433067 0c-16.728747 19.254613-32.709973 33.39264-47.936853 42.407253l10.653013 24.38144c7.3728-0.955733 18.025813-1.880747 31.955627-2.771627-3.6864 31.955627-23.149227 52.824747-58.381653 62.58688 5.461333 6.280533 12.356267 15.090347 20.691627 26.42944 40.628907-13.39392 62.64832-43.574613 66.065067-90.548907l23.046827-1.027413 0 55.927467c0 20.486827 9.147733 30.737067 27.446613 30.737067l23.76704 0c13.114027 0.2048 22.429013-2.512213 27.962027-8.15104 5.5296-5.628587 10.277547-19.514027 14.240427-41.63584-11.475627-3.959467-21.036373-7.717547-28.68224-11.270827C584.813227 652.76928 583.041707 662.893227 581.123413 666.678613z" fill="#9B9B9B" p-id="7805"></path><path d="M512 10.77248C235.178667 10.77248 10.77248 235.18208 10.77248 512 10.77248 788.821333 235.178667 1013.22752 512 1013.22752c276.814507 0 501.22752-224.406187 501.22752-501.22752C1013.22752 235.18208 788.814507 10.77248 512 10.77248zM344.91392 187.327147c41.772373-35.242667 134.4512 39.161173 167.08608 36.549973 32.63488 2.6112 125.313707-71.796053 167.082667-36.549973 41.76896 35.24608-50.582187 115.807573-50.582187 115.807573l-233.028267 0C395.472213 303.138133 303.14496 222.57664 344.91392 187.327147zM637.313707 344.910507c0 11.543893-9.33888 20.882773-20.886187 20.882773l-208.85504 0c-11.547307 0-20.882773-9.33888-20.882773-20.882773 0-11.547307 9.335467-20.882773 20.882773-20.882773l208.85504 0C627.974827 324.027733 637.313707 333.3632 637.313707 344.910507zM512 845.714773c-161.498453 0-292.399787 14.568107-292.399787-122.05056 0-101.573973 72.40704-261.515947 175.872-336.984747l233.028267 0c103.48544 75.465387 175.895893 235.410773 175.895893 336.984747C804.396373 860.276053 673.49504 845.714773 512 845.714773z" fill="#9B9B9B" p-id="7806"></path></svg>