<?xml version="1.0" standalone="no"?><!DOCTYPE svg PUBLIC "-//W3C//DTD SVG 1.1//EN" "http://www.w3.org/Graphics/SVG/1.1/DTD/svg11.dtd"><svg t="1703080387112" class="icon" viewBox="0 0 1024 1024" version="1.1" xmlns="http://www.w3.org/2000/svg" p-id="2521" xmlns:xlink="http://www.w3.org/1999/xlink" width="200" height="200"><path d="M828.757333 739.925333c-33.109333-76.885333-148.394667-192.128-325.973333-192.128-156.330667 0-279.552 108.629333-316.672 210.645334-5.290667 15.914667-2.645333 34.474667 7.936 49.066666 10.624 14.549333 26.538667 23.850667 45.056 23.850667h539.306667c19.882667 0 37.12-9.301333 47.701333-25.173333 11.946667-18.56 13.226667-43.733333 2.645333-66.261334zM350.421333 400.682667c18.56 66.261333 78.165333 115.285333 151.04 115.285333 71.552 0 132.522667-49.024 151.04-115.285333A53.077333 53.077333 0 0 0 697.6 347.733333c0-9.258667-2.645333-18.56-6.656-25.173333 1.322667-1.322667 1.322667-3.968 1.322667-6.613333v-38.4a191.573333 191.573333 0 0 0-55.637334-135.210667A185.216 185.216 0 0 0 501.461333 85.333333C395.52 85.333333 309.333333 171.477333 309.333333 276.138667v42.410666a54.357333 54.357333 0 0 0-9.258666 29.141334c1.28 27.818667 22.528 51.669333 50.346666 52.992zM327.893333 347.733333c0-11.946667 6.613333-21.205333 17.237334-25.173333v37.12c0 3.968 0 9.258667 1.28 13.226667-10.581333-3.968-18.517333-13.226667-18.517334-25.173334z m173.568 141.781334A130.048 130.048 0 0 1 371.626667 359.637333V325.12c31.786667 9.301333 71.552 18.56 107.306666 18.56 46.378667 0 88.789333-14.592 109.994667-63.573333l42.410667 42.368v38.4c0 70.272-58.325333 128.554667-129.877334 128.554666z m155.050667-117.930667V323.84c7.936 5.290667 13.226667 13.226667 13.226667 23.893333 1.365333 10.581333-3.968 18.517333-13.226667 23.808zM651.221333 938.666667h-300.8c-7.936 0-13.226667-5.290667-13.226666-13.226667 0-7.978667 5.290667-13.269333 13.226666-13.269333h300.8c7.936 0 13.226667 5.290667 13.226667 13.226666 0 7.978667-5.290667 13.269333-13.226667 13.269334z" fill="#000000" p-id="2522"></path></svg>